<svg xmlns="http://www.w3.org/2000/svg" xmlns:xlink="http://www.w3.org/1999/xlink" width="1920" zoomAndPan="magnify" viewBox="0 0 1440 809.999993" height="1080" preserveAspectRatio="xMidYMid meet" version="1.0"><path fill="#ee2326" d="M 652.652344 346.988281 L 545.53125 346.988281 L 545.53125 255.5 L 477.625 255.5 L 477.625 503.855469 L 545.53125 503.855469 L 545.53125 404.363281 L 652.652344 404.363281 L 652.652344 503.855469 L 720.425781 503.855469 L 720.425781 255.5 L 652.65625 255.5 Z M 652.652344 346.988281 " fill-opacity="1" fill-rule="nonzero"/><path fill="#ee2326" d="M 818.175781 350.5625 C 823.867188 317.035156 842.402344 299.523438 872.453125 299.523438 C 902.847656 299.523438 923.496094 320.171875 924.484375 350.5625 Z M 872.828125 248.960938 C 798.109375 248.960938 747.988281 300.546875 747.988281 377.921875 C 747.988281 458.402344 797.53125 509.546875 874.976562 509.546875 C 936.851562 509.546875 979.269531 481.164062 995.183594 427.429688 L 921.894531 427.429688 C 915.25 447.054688 899.746094 456.902344 876.441406 456.902344 C 841.414062 456.902344 820.359375 436.152344 818.585938 400.070312 L 995.183594 400.070312 C 995.183594 391.347656 995.695312 388.28125 995.695312 384.125 C 995.695312 300.546875 948.265625 248.960938 872.828125 248.960938 " fill-opacity="1" fill-rule="nonzero"/><path fill="#ee2326" d="M 1111.128906 253.355469 C 1087.109375 258.125 1025.472656 276.660156 1025.472656 370.699219 L 1025.472656 503.820312 L 1094.164062 503.820312 L 1094.164062 393.871094 C 1094.164062 353.152344 1099.820312 334.039062 1116.785156 321.703125 C 1127.179688 313.390625 1142.203125 308.789062 1159.648438 308.789062 C 1166.871094 308.789062 1169.972656 309.335938 1178.253906 310.835938 L 1178.253906 254.480469 C 1178.253906 254.480469 1150.859375 245.585938 1111.128906 253.355469 " fill-opacity="1" fill-rule="nonzero"/><path fill="#ee2326" d="M 1314.097656 457.859375 C 1277.914062 457.859375 1256.789062 428.488281 1256.789062 379.457031 C 1256.789062 329.917969 1277.472656 301.023438 1314.097656 301.023438 C 1350.183594 301.023438 1370.863281 329.40625 1370.863281 378.945312 C 1370.863281 429.03125 1350.183594 457.859375 1314.097656 457.859375 M 1314.097656 248.925781 C 1237.097656 248.957031 1187.554688 300 1187.554688 379.457031 C 1187.554688 458.367188 1237.097656 509.511719 1314.097656 509.511719 C 1390.386719 509.511719 1439.996094 458.367188 1439.996094 379.457031 C 1439.996094 300 1390.386719 248.925781 1314.097656 248.925781 " fill-opacity="1" fill-rule="nonzero"/><path fill="#ffffff" d="M 291.660156 224.972656 L 185.457031 146.503906 L 185.457031 370.019531 L 291.660156 296.390625 Z M 291.660156 224.972656 " fill-opacity="1" fill-rule="nonzero"/><path fill="#ffffff" d="M 291.660156 544.570312 L 291.660156 391.042969 L 185.457031 467.398438 Z M 291.660156 544.570312 " fill-opacity="1" fill-rule="nonzero"/><path fill="#ee2326" d="M 0 535.644531 L 106.238281 612.851562 L 106.238281 293.21875 L 0 214.75 Z M 0 535.644531 " fill-opacity="1" fill-rule="nonzero"/></svg>