<svg xmlns="http://www.w3.org/2000/svg" xmlns:xlink="http://www.w3.org/1999/xlink" width="1920" zoomAndPan="magnify" viewBox="0 0 1440 809.999993" height="1080" preserveAspectRatio="xMidYMid meet" version="1.0"><path fill="#ee2326" d="M 652.652344 347.03125 L 545.53125 347.03125 L 545.53125 255.527344 L 477.625 255.527344 L 477.625 503.9375 L 545.53125 503.9375 L 545.53125 404.421875 L 652.652344 404.421875 L 652.652344 503.9375 L 720.425781 503.9375 L 720.425781 255.527344 L 652.65625 255.527344 Z M 652.652344 347.03125 " fill-opacity="1" fill-rule="nonzero"/><path fill="#ee2326" d="M 818.175781 350.609375 C 823.867188 317.074219 842.402344 299.558594 872.453125 299.558594 C 902.847656 299.558594 923.496094 320.210938 924.484375 350.609375 Z M 872.828125 248.984375 C 798.109375 248.984375 747.988281 300.582031 747.988281 377.976562 C 747.988281 458.472656 797.53125 509.628906 874.976562 509.628906 C 936.851562 509.628906 979.269531 481.238281 995.183594 427.492188 L 921.894531 427.492188 C 915.25 447.125 899.746094 456.972656 876.441406 456.972656 C 841.414062 456.972656 820.359375 436.21875 818.585938 400.128906 L 995.183594 400.128906 C 995.183594 391.402344 995.695312 388.335938 995.695312 384.179688 C 995.695312 300.582031 948.265625 248.984375 872.828125 248.984375 " fill-opacity="1" fill-rule="nonzero"/><path fill="#ee2326" d="M 1111.128906 253.378906 C 1087.109375 258.152344 1025.472656 276.691406 1025.472656 370.75 L 1025.472656 503.902344 L 1094.164062 503.902344 L 1094.164062 393.925781 C 1094.164062 353.199219 1099.820312 334.082031 1116.785156 321.742188 C 1127.179688 313.429688 1142.203125 308.828125 1159.648438 308.828125 C 1166.871094 308.828125 1169.972656 309.375 1178.253906 310.871094 L 1178.253906 254.503906 C 1178.253906 254.503906 1150.859375 245.609375 1111.128906 253.378906 " fill-opacity="1" fill-rule="nonzero"/><path fill="#ee2326" d="M 1314.097656 457.929688 C 1277.914062 457.929688 1256.789062 428.550781 1256.789062 379.511719 C 1256.789062 329.957031 1277.472656 301.058594 1314.097656 301.058594 C 1350.183594 301.058594 1370.863281 329.445312 1370.863281 379 C 1370.863281 429.097656 1350.183594 457.929688 1314.097656 457.929688 M 1314.097656 248.949219 C 1237.097656 248.980469 1187.554688 300.035156 1187.554688 379.511719 C 1187.554688 458.4375 1237.097656 509.59375 1314.097656 509.59375 C 1390.386719 509.59375 1439.996094 458.4375 1439.996094 379.511719 C 1439.996094 300.035156 1390.386719 248.949219 1314.097656 248.949219 " fill-opacity="1" fill-rule="nonzero"/><path fill="#000000" d="M 291.660156 224.992188 L 185.457031 146.503906 L 185.457031 370.070312 L 291.660156 296.421875 Z M 291.660156 224.992188 " fill-opacity="1" fill-rule="nonzero"/><path fill="#000000" d="M 291.660156 544.660156 L 291.660156 391.097656 L 185.457031 467.46875 Z M 291.660156 544.660156 " fill-opacity="1" fill-rule="nonzero"/><path fill="#ee2326" d="M 0 535.734375 L 106.238281 612.957031 L 106.238281 293.253906 L 0 214.765625 Z M 0 535.734375 " fill-opacity="1" fill-rule="nonzero"/></svg>